{
	"asset":{
		"generator":"Khronos glTF Blender I/O v4.0.44",
		"version":"2.0"
	},
	"extensionsUsed":[
		"KHR_materials_clearcoat"
	],
	"scene":0,
	"scenes":[
		{
			"name":"Scene",
			"nodes":[
				0
			]
		}
	],
	"nodes":[
		{
			"mesh":0,
			"name":"Fender Precision Bass",
			"rotation":[
				-0.01560961827635765,
				-0.0008673930424265563,
				0.00020235277770552784,
				0.9998778104782104
			]
		}
	],
	"materials":[
		{
			"doubleSided":true,
			"extensions":{
				"KHR_materials_clearcoat":{
					"clearcoatFactor":0.05000000074505806,
					"clearcoatRoughnessFactor":0.029999999329447746
				}
			},
			"name":"Material",
			"normalTexture":{
				"index":0
			},
			"pbrMetallicRoughness":{
				"baseColorTexture":{
					"index":1
				},
				"metallicRoughnessTexture":{
					"index":2
				}
			}
		}
	],
	"meshes":[
		{
			"name":"Fender precision bass",
			"primitives":[
				{
					"attributes":{
						"POSITION":0,
						"NORMAL":1,
						"TEXCOORD_0":2
					},
					"indices":3,
					"material":0
				}
			]
		}
	],
	"textures":[
		{
			"sampler":0,
			"source":0
		},
		{
			"sampler":0,
			"source":1
		},
		{
			"sampler":0,
			"source":2
		}
	],
	"images":[
		{
			"mimeType":"image/png",
			"name":"normals",
			"uri":"normals.png"
		},
		{
			"mimeType":"image/png",
			"name":"color",
			"uri":"color.png"
		},
		{
			"mimeType":"image/png",
			"name":"metallic-roughness",
			"uri":"metallic-roughness.png"
		}
	],
	"accessors":[
		{
			"bufferView":0,
			"componentType":5126,
			"count":66927,
			"max":[
				0.4519018828868866,
				0.2128855586051941,
				1.5773694515228271
			],
			"min":[
				-0.43866559863090515,
				-0.031182125210762024,
				-1.6268000602722168
			],
			"type":"VEC3"
		},
		{
			"bufferView":1,
			"componentType":5126,
			"count":66927,
			"type":"VEC3"
		},
		{
			"bufferView":2,
			"componentType":5126,
			"count":66927,
			"type":"VEC2"
		},
		{
			"bufferView":3,
			"componentType":5125,
			"count":363291,
			"type":"SCALAR"
		}
	],
	"bufferViews":[
		{
			"buffer":0,
			"byteLength":803124,
			"byteOffset":0,
			"target":34962
		},
		{
			"buffer":0,
			"byteLength":803124,
			"byteOffset":803124,
			"target":34962
		},
		{
			"buffer":0,
			"byteLength":535416,
			"byteOffset":1606248,
			"target":34962
		},
		{
			"buffer":0,
			"byteLength":1453164,
			"byteOffset":2141664,
			"target":34963
		}
	],
	"samplers":[
		{
			"magFilter":9729,
			"minFilter":9987
		}
	],
	"buffers":[
		{
			"byteLength":3594828,
			"uri":"bass_guitar.bin"
		}
	]
}
