{
	"asset":{
		"generator":"Khronos glTF Blender I/O v4.0.44",
		"version":"2.0"
	},
	"scene":0,
	"scenes":[
		{
			"name":"Scene",
			"nodes":[
				0
			]
		}
	],
	"nodes":[
		{
			"mesh":0,
			"name":"Tastiera",
			"scale":[
				2.0799999237060547,
				0.04500000923871994,
				0.27000001072883606
			],
			"translation":[
				-0.9557453393936157,
				0.614412784576416,
				0.06376879662275314
			]
		}
	],
	"materials":[
		{
			"doubleSided":true,
			"name":"Tasto Nero",
			"pbrMetallicRoughness":{
				"metallicFactor":0,
				"roughnessFactor":0.5
			}
		},
		{
			"doubleSided":true,
			"name":"Tasti Bianchi",
			"pbrMetallicRoughness":{
				"baseColorFactor":[
					0.800000011920929,
					0.800000011920929,
					0.800000011920929,
					1
				],
				"metallicFactor":0,
				"roughnessFactor":0.5
			}
		}
	],
	"meshes":[
		{
			"name":"Cubo.001",
			"primitives":[
				{
					"attributes":{
						"POSITION":0,
						"NORMAL":1,
						"TEXCOORD_0":2
					},
					"indices":3,
					"material":0
				},
				{
					"attributes":{
						"POSITION":4,
						"NORMAL":5,
						"TEXCOORD_0":6
					},
					"indices":7,
					"material":1
				}
			]
		}
	],
	"accessors":[
		{
			"bufferView":0,
			"componentType":5126,
			"count":1489,
			"max":[
				0.603500247001648,
				0.751679539680481,
				0.7638188004493713
			],
			"min":[
				-0.5405066609382629,
				-1.2579214572906494,
				-1.236180305480957
			],
			"type":"VEC3"
		},
		{
			"bufferView":1,
			"componentType":5126,
			"count":1489,
			"type":"VEC3"
		},
		{
			"bufferView":2,
			"componentType":5126,
			"count":1489,
			"type":"VEC2"
		},
		{
			"bufferView":3,
			"componentType":5123,
			"count":2304,
			"type":"SCALAR"
		},
		{
			"bufferView":4,
			"componentType":5126,
			"count":6204,
			"max":[
				0.5445632934570312,
				-0.03972119092941284,
				0.7033892273902893
			],
			"min":[
				-0.4798455536365509,
				-0.7063876986503601,
				-0.4082544445991516
			],
			"type":"VEC3"
		},
		{
			"bufferView":5,
			"componentType":5126,
			"count":6204,
			"type":"VEC3"
		},
		{
			"bufferView":6,
			"componentType":5126,
			"count":6204,
			"type":"VEC2"
		},
		{
			"bufferView":7,
			"componentType":5123,
			"count":11784,
			"type":"SCALAR"
		}
	],
	"bufferViews":[
		{
			"buffer":0,
			"byteLength":17868,
			"byteOffset":0,
			"target":34962
		},
		{
			"buffer":0,
			"byteLength":17868,
			"byteOffset":17868,
			"target":34962
		},
		{
			"buffer":0,
			"byteLength":11912,
			"byteOffset":35736,
			"target":34962
		},
		{
			"buffer":0,
			"byteLength":4608,
			"byteOffset":47648,
			"target":34963
		},
		{
			"buffer":0,
			"byteLength":74448,
			"byteOffset":52256,
			"target":34962
		},
		{
			"buffer":0,
			"byteLength":74448,
			"byteOffset":126704,
			"target":34962
		},
		{
			"buffer":0,
			"byteLength":49632,
			"byteOffset":201152,
			"target":34962
		},
		{
			"buffer":0,
			"byteLength":23568,
			"byteOffset":250784,
			"target":34963
		}
	],
	"buffers":[
		{
			"byteLength":274352,
			"uri":"KeysSynth.bin"
		}
	]
}
